<svg width="51" height="52" viewBox="0 0 51 52" fill="none" xmlns="http://www.w3.org/2000/svg">
<path d="M14.064 11.1738C12.2596 11.1738 10.7968 12.6365 10.7968 14.4409V37.5389C10.7968 39.3433 12.2596 40.8061 14.064 40.8061H37.1737C38.9781 40.8061 40.4409 39.3433 40.4409 37.5389V14.4409C40.4409 12.6365 38.9781 11.1738 37.1737 11.1738H14.064Z" stroke="white" stroke-width="1.50792"/>
<rect x="47.7031" y="47.748" width="0.75396" height="7.5396" rx="0.37698" transform="rotate(135 47.7031 47.748)" fill="white"/>
<rect x="34.7383" y="44.1934" width="0.75396" height="2.5132" rx="0.37698" transform="rotate(135 34.7383 44.1934)" fill="white"/>
<rect x="25.2656" y="42.416" width="0.75396" height="8.7962" rx="0.37698" fill="white"/>
<rect x="17.0781" y="44.7266" width="0.75396" height="2.5132" rx="0.37698" transform="rotate(-135 17.0781 44.7266)" fill="white"/>
<rect x="4.11328" y="48.2803" width="0.75396" height="7.5396" rx="0.37698" transform="rotate(-135 4.11328 48.2803)" fill="white"/>
<rect x="6.89453" y="17.2656" width="0.75396" height="2.5132" rx="0.37698" transform="rotate(-45 6.89453 17.2656)" fill="white"/>
<rect x="0.410156" y="26.3965" width="0.75396" height="8.7962" rx="0.37698" transform="rotate(-90 0.410156 26.3965)" fill="white"/>
<rect x="8.67188" y="32.9961" width="0.75396" height="2.5132" rx="0.37698" transform="rotate(45 8.67188 32.9961)" fill="white"/>
<rect x="43.8086" y="16.3809" width="0.75396" height="2.5132" rx="0.37698" transform="rotate(45 43.8086 16.3809)" fill="white"/>
<rect x="42.0312" y="26.0449" width="0.75396" height="8.7962" rx="0.37698" transform="rotate(-90 42.0312 26.0449)" fill="white"/>
<rect x="42.0312" y="33.1777" width="0.75396" height="2.5132" rx="0.37698" transform="rotate(-45 42.0312 33.1777)" fill="white"/>
<rect x="3.56641" y="4.25195" width="0.75396" height="7.5396" rx="0.37698" transform="rotate(-45 3.56641 4.25195)" fill="white"/>
<rect x="16.5312" y="7.80664" width="0.75396" height="2.5132" rx="0.37698" transform="rotate(-45 16.5312 7.80664)" fill="white"/>
<rect x="26.0039" y="9.58398" width="0.75396" height="8.7962" rx="0.37698" transform="rotate(-180 26.0039 9.58398)" fill="white"/>
<rect x="34.1914" y="7.27344" width="0.75396" height="2.5132" rx="0.37698" transform="rotate(45 34.1914 7.27344)" fill="white"/>
<rect x="47.1562" y="3.71973" width="0.75396" height="7.5396" rx="0.37698" transform="rotate(45 47.1562 3.71973)" fill="white"/>
<path d="M21.6543 31.3732L25.9896 29.4083L30.3249 31.3732L30.7288 30.9694L25.9896 19.5302L21.2504 30.9694L21.6543 31.3732ZM25.9896 36.7564C24.4996 36.7564 23.0994 36.4738 21.789 35.9085C20.4785 35.3433 19.3386 34.5762 18.3692 33.6072C17.3998 32.6382 16.6324 31.4988 16.067 30.1889C15.5015 28.879 15.2188 27.4794 15.2188 25.99C15.2188 24.5007 15.5015 23.101 16.067 21.7911C16.6324 20.4812 17.3998 19.3418 18.3692 18.3728C19.3386 17.4038 20.4785 16.6367 21.789 16.0715C23.0994 15.5063 24.4996 15.2236 25.9896 15.2236C27.4796 15.2236 28.8798 15.5063 30.1902 16.0715C31.5007 16.6367 32.6406 17.4038 33.61 18.3728C34.5794 19.3418 35.3468 20.4812 35.9123 21.7911C36.4777 23.101 36.7605 24.5007 36.7605 25.99C36.7605 27.4794 36.4777 28.879 35.9123 30.1889C35.3468 31.4988 34.5794 32.6382 33.61 33.6072C32.6406 34.5762 31.5007 35.3433 30.1902 35.9085C28.8798 36.4738 27.4796 36.7564 25.9896 36.7564ZM25.9896 34.6031C28.3951 34.6031 30.4326 33.7687 32.1021 32.0999C33.7716 30.4311 34.6063 28.3945 34.6063 25.99C34.6063 23.5855 33.7716 21.5489 32.1021 19.8801C30.4326 18.2113 28.3951 17.3769 25.9896 17.3769C23.5841 17.3769 21.5466 18.2113 19.8771 19.8801C18.2077 21.5489 17.3729 23.5855 17.3729 25.99C17.3729 28.3945 18.2077 30.4311 19.8771 32.0999C21.5466 33.7687 23.5841 34.6031 25.9896 34.6031Z" fill="white"/>
</svg>
